<svg xmlns="http://www.w3.org/2000/svg" xmlns:xlink="http://www.w3.org/1999/xlink" width="500" zoomAndPan="magnify" viewBox="0 0 375 374.999991" height="500" preserveAspectRatio="xMidYMid meet" version="1.0"><defs><g/></defs><g fill="#00bf63" fill-opacity="1"><g transform="translate(72.73011, 205.842409)"><g><path d="M 20.296875 -50.078125 C 21.453125 -50.078125 22.03125 -49.5 22.03125 -48.34375 L 22.03125 22.546875 C 22.03125 23.148438 21.828125 23.65625 21.421875 24.0625 C 21.015625 24.476562 20.503906 24.6875 19.890625 24.6875 L 2.546875 24.6875 C 3.703125 24.476562 4.6875 23.8125 5.5 22.6875 C 6.320312 21.570312 6.734375 20.367188 6.734375 19.078125 L 6.734375 -41.921875 C 6.734375 -43.210938 6.320312 -44.414062 5.5 -45.53125 C 4.6875 -46.65625 3.703125 -47.320312 2.546875 -47.53125 L 19.984375 -50.078125 Z M 29.375 -50.078125 C 32.164062 -50.347656 34.953125 -49.988281 37.734375 -49 C 40.523438 -48.019531 43.023438 -46.472656 45.234375 -44.359375 C 47.441406 -42.253906 49.242188 -39.671875 50.640625 -36.609375 C 52.035156 -33.554688 52.734375 -30.125 52.734375 -26.3125 C 52.734375 -22.570312 52.207031 -19.253906 51.15625 -16.359375 C 50.101562 -13.472656 48.707031 -10.957031 46.96875 -8.8125 C 45.238281 -6.675781 43.285156 -4.859375 41.109375 -3.359375 C 38.929688 -1.867188 36.71875 -0.597656 34.46875 0.453125 C 32.226562 1.515625 30.050781 2.382812 27.9375 3.0625 C 25.832031 3.738281 24.035156 4.316406 22.546875 4.796875 C 24.304688 3.835938 26.085938 2.578125 27.890625 1.015625 C 29.691406 -0.546875 31.304688 -2.515625 32.734375 -4.890625 C 34.171875 -7.273438 35.347656 -10.132812 36.265625 -13.46875 C 37.179688 -16.800781 37.640625 -20.773438 37.640625 -25.390625 C 37.640625 -28.523438 37.316406 -31.503906 36.671875 -34.328125 C 36.023438 -37.148438 35.15625 -39.628906 34.0625 -41.765625 C 32.976562 -43.910156 31.703125 -45.609375 30.234375 -46.859375 C 28.773438 -48.117188 27.195312 -48.75 25.5 -48.75 C 24.414062 -48.75 23.429688 -48.546875 22.546875 -48.140625 C 24.378906 -49.097656 26.65625 -49.742188 29.375 -50.078125 Z M 29.375 -50.078125 "/></g></g></g><g fill="#272727" fill-opacity="1"><g transform="translate(117.109014, 205.842409)"><g><path d="M 34.6875 -6.015625 C 36.65625 -6.015625 38.585938 -6.503906 40.484375 -7.484375 C 42.390625 -8.472656 44.054688 -9.851562 45.484375 -11.625 C 43.453125 -7.957031 40.703125 -5.015625 37.234375 -2.796875 C 33.765625 -0.585938 29.957031 0.515625 25.8125 0.515625 C 22.613281 0.515625 19.601562 -0.160156 16.78125 -1.515625 C 13.957031 -2.878906 11.488281 -4.71875 9.375 -7.03125 C 7.269531 -9.34375 5.601562 -12.0625 4.375 -15.1875 C 3.15625 -18.320312 2.546875 -21.691406 2.546875 -25.296875 C 2.546875 -28.828125 3.15625 -32.175781 4.375 -35.34375 C 5.601562 -38.507812 7.269531 -41.242188 9.375 -43.546875 C 11.488281 -45.859375 13.957031 -47.695312 16.78125 -49.0625 C 19.601562 -50.425781 22.613281 -51.109375 25.8125 -51.109375 C 25.125 -50.960938 24.320312 -50.328125 23.40625 -49.203125 C 22.488281 -48.085938 21.617188 -46.613281 20.796875 -44.78125 C 19.984375 -42.945312 19.285156 -40.820312 18.703125 -38.40625 C 18.128906 -35.988281 17.84375 -33.421875 17.84375 -30.703125 C 17.84375 -27.304688 18.285156 -24.109375 19.171875 -21.109375 C 20.054688 -18.117188 21.265625 -15.5 22.796875 -13.25 C 24.328125 -11.007812 26.113281 -9.242188 28.15625 -7.953125 C 30.195312 -6.660156 32.375 -6.015625 34.6875 -6.015625 Z M 33.453125 -33.65625 C 33.453125 -35.695312 33.28125 -37.6875 32.9375 -39.625 C 32.601562 -41.5625 32.160156 -43.3125 31.609375 -44.875 C 31.066406 -46.4375 30.40625 -47.757812 29.625 -48.84375 C 28.84375 -49.9375 28.007812 -50.691406 27.125 -51.109375 C 29.71875 -50.898438 32.132812 -50.25 34.375 -49.15625 C 36.613281 -48.070312 38.617188 -46.644531 40.390625 -44.875 C 42.160156 -43.113281 43.640625 -41.039062 44.828125 -38.65625 C 46.015625 -36.28125 46.882812 -33.695312 47.4375 -30.90625 L 30.59375 -30.90625 C 31.34375 -30.90625 32.003906 -31.175781 32.578125 -31.71875 C 33.160156 -32.257812 33.453125 -32.90625 33.453125 -33.65625 Z M 33.453125 -33.65625 "/></g></g></g><g fill="#00bf63" fill-opacity="1"><g transform="translate(156.179323, 205.842409)"><g><path d="M 13.96875 20.09375 C 13.96875 21.320312 14.492188 22.289062 15.546875 23 C 16.609375 23.71875 17.75 24.210938 18.96875 24.484375 C 16.726562 24.140625 14.601562 23.472656 12.59375 22.484375 C 10.59375 21.503906 8.859375 20.347656 7.390625 19.015625 C 5.929688 17.691406 4.757812 16.265625 3.875 14.734375 C 2.988281 13.203125 2.546875 11.722656 2.546875 10.296875 C 2.546875 8.117188 3.3125 6.265625 4.84375 4.734375 C 6.375 3.210938 8.226562 2.453125 10.40625 2.453125 C 11.488281 2.453125 12.523438 2.65625 13.515625 3.0625 C 14.503906 3.46875 15.351562 4.023438 16.0625 4.734375 C 16.78125 5.453125 17.34375 6.285156 17.75 7.234375 C 18.15625 8.191406 18.359375 9.210938 18.359375 10.296875 C 18.359375 11.523438 18.132812 12.546875 17.6875 13.359375 C 17.25 14.179688 16.757812 14.929688 16.21875 15.609375 C 15.675781 16.285156 15.179688 16.960938 14.734375 17.640625 C 14.296875 18.328125 14.039062 19.144531 13.96875 20.09375 Z M 38.359375 -50.078125 C 38.898438 -50.078125 39.335938 -49.921875 39.671875 -49.609375 C 40.015625 -49.304688 40.1875 -48.882812 40.1875 -48.34375 L 40.1875 10.296875 C 40.1875 11.722656 39.8125 13.1875 39.0625 14.6875 C 38.3125 16.1875 37.273438 17.582031 35.953125 18.875 C 34.628906 20.164062 33.082031 21.300781 31.3125 22.28125 C 29.539062 23.269531 27.671875 23.96875 25.703125 24.375 C 26.859375 24.101562 27.945312 23.609375 28.96875 22.890625 C 29.988281 22.179688 30.5 21.25 30.5 20.09375 C 30.5 19.070312 30.222656 18.1875 29.671875 17.4375 C 29.128906 16.6875 28.5 15.953125 27.78125 15.234375 C 27.070312 14.523438 26.410156 13.78125 25.796875 13 C 25.191406 12.21875 24.851562 11.316406 24.78125 10.296875 L 24.78125 -41.921875 C 24.78125 -43.210938 24.390625 -44.414062 23.609375 -45.53125 C 22.828125 -46.65625 21.828125 -47.320312 20.609375 -47.53125 L 38.140625 -50.078125 Z M 32.53125 -55.59375 C 31.445312 -55.59375 30.410156 -55.796875 29.421875 -56.203125 C 28.441406 -56.609375 27.59375 -57.164062 26.875 -57.875 C 26.164062 -58.59375 25.601562 -59.425781 25.1875 -60.375 C 24.78125 -61.332031 24.578125 -62.351562 24.578125 -63.4375 C 24.578125 -65.613281 25.359375 -67.484375 26.921875 -69.046875 C 28.492188 -70.617188 30.363281 -71.40625 32.53125 -71.40625 C 33.625 -71.40625 34.644531 -71.195312 35.59375 -70.78125 C 36.550781 -70.375 37.382812 -69.8125 38.09375 -69.09375 C 38.8125 -68.382812 39.375 -67.535156 39.78125 -66.546875 C 40.1875 -65.566406 40.390625 -64.53125 40.390625 -63.4375 C 40.390625 -61.269531 39.625 -59.421875 38.09375 -57.890625 C 36.5625 -56.359375 34.707031 -55.59375 32.53125 -55.59375 Z M 32.53125 -55.59375 "/></g></g></g><g fill="#272727" fill-opacity="1"><g transform="translate(188.218384, 205.842409)"><g><path d="M 26.625 -51.109375 C 29.75 -50.960938 32.671875 -50.191406 35.390625 -48.796875 C 38.109375 -47.410156 40.488281 -45.5625 42.53125 -43.25 C 44.570312 -40.9375 46.171875 -38.234375 47.328125 -35.140625 C 48.484375 -32.046875 49.0625 -28.765625 49.0625 -25.296875 C 49.0625 -21.828125 48.484375 -18.546875 47.328125 -15.453125 C 46.171875 -12.359375 44.570312 -9.65625 42.53125 -7.34375 C 40.488281 -5.03125 38.109375 -3.175781 35.390625 -1.78125 C 32.671875 -0.382812 29.75 0.378906 26.625 0.515625 C 28.9375 0.0351562 30.6875 -2.394531 31.875 -6.78125 C 33.0625 -11.164062 33.65625 -17.335938 33.65625 -25.296875 C 33.65625 -33.253906 33.0625 -39.425781 31.875 -43.8125 C 30.6875 -48.195312 28.9375 -50.628906 26.625 -51.109375 Z M 24.890625 -51.109375 C 22.640625 -50.628906 20.898438 -48.195312 19.671875 -43.8125 C 18.453125 -39.425781 17.84375 -33.253906 17.84375 -25.296875 C 17.84375 -17.335938 18.453125 -11.164062 19.671875 -6.78125 C 20.898438 -2.394531 22.640625 0.0351562 24.890625 0.515625 C 21.765625 0.378906 18.835938 -0.382812 16.109375 -1.78125 C 13.390625 -3.175781 11.023438 -5.03125 9.015625 -7.34375 C 7.015625 -9.65625 5.4375 -12.359375 4.28125 -15.453125 C 3.125 -18.546875 2.546875 -21.828125 2.546875 -25.296875 C 2.546875 -28.765625 3.125 -32.046875 4.28125 -35.140625 C 5.4375 -38.234375 7.015625 -40.9375 9.015625 -43.25 C 11.023438 -45.5625 13.390625 -47.410156 16.109375 -48.796875 C 18.835938 -50.191406 21.765625 -50.960938 24.890625 -51.109375 Z M 24.890625 -51.109375 "/></g></g></g><g fill="#272727" fill-opacity="1"><g transform="translate(228.916353, 205.842409)"><g><path d="M 22.140625 -44.265625 L 22.140625 -9.1875 C 22.140625 -7.613281 22.664062 -6.300781 23.71875 -5.25 C 24.769531 -4.195312 26.046875 -3.671875 27.546875 -3.671875 C 28.554688 -3.671875 29.503906 -3.941406 30.390625 -4.484375 C 29.785156 -4.015625 29.070312 -3.488281 28.25 -2.90625 C 27.4375 -2.332031 26.519531 -1.789062 25.5 -1.28125 C 24.476562 -0.769531 23.351562 -0.34375 22.125 0 C 20.90625 0.34375 19.582031 0.515625 18.15625 0.515625 C 16.59375 0.515625 15.113281 0.207031 13.71875 -0.40625 C 12.320312 -1.019531 11.113281 -1.851562 10.09375 -2.90625 C 9.070312 -3.957031 8.253906 -5.179688 7.640625 -6.578125 C 7.035156 -7.972656 6.734375 -9.453125 6.734375 -11.015625 L 6.734375 -44.578125 C 6.734375 -45.796875 6.34375 -46.96875 5.5625 -48.09375 C 4.78125 -49.21875 3.773438 -49.914062 2.546875 -50.1875 C 6.421875 -50.457031 10.023438 -51.390625 13.359375 -52.984375 C 16.691406 -54.585938 19.617188 -56.679688 22.140625 -59.265625 L 22.140625 -50.1875 L 26.21875 -50.1875 C 25.0625 -49.914062 24.09375 -49.21875 23.3125 -48.09375 C 22.53125 -46.96875 22.140625 -45.796875 22.140625 -44.578125 Z M 22.140625 -44.265625 "/></g></g></g><g fill="#272727" fill-opacity="1"><g transform="translate(251.152324, 205.842409)"><g><path d="M 13.5625 -28.65625 C 11.382812 -28.65625 9.53125 -29.421875 8 -30.953125 C 6.476562 -32.484375 5.71875 -34.335938 5.71875 -36.515625 C 5.71875 -38.210938 6.222656 -39.878906 7.234375 -41.515625 C 8.253906 -43.148438 9.582031 -44.613281 11.21875 -45.90625 C 12.851562 -47.195312 14.6875 -48.28125 16.71875 -49.15625 C 18.757812 -50.039062 20.800781 -50.585938 22.84375 -50.796875 C 21.007812 -50.523438 19.597656 -49.976562 18.609375 -49.15625 C 17.628906 -48.34375 17.140625 -47.394531 17.140625 -46.3125 C 17.140625 -45.5625 17.34375 -44.828125 17.75 -44.109375 C 18.15625 -43.398438 18.664062 -42.671875 19.28125 -41.921875 C 20.769531 -40.554688 21.515625 -38.753906 21.515625 -36.515625 C 21.515625 -34.335938 20.734375 -32.484375 19.171875 -30.953125 C 17.609375 -29.421875 15.738281 -28.65625 13.5625 -28.65625 Z M 44.375 -7.65625 C 44.375 -6.425781 44.78125 -5.234375 45.59375 -4.078125 C 46.40625 -2.921875 47.390625 -2.242188 48.546875 -2.046875 L 31.015625 0.515625 L 30.796875 0.515625 C 30.253906 0.515625 29.8125 0.34375 29.46875 0 C 29.132812 -0.34375 28.96875 -0.785156 28.96875 -1.328125 L 28.96875 -30.796875 C 28.15625 -30.390625 27.148438 -29.878906 25.953125 -29.265625 C 24.765625 -28.660156 23.609375 -27.847656 22.484375 -26.828125 C 21.367188 -25.804688 20.382812 -24.515625 19.53125 -22.953125 C 18.6875 -21.390625 18.160156 -19.414062 17.953125 -17.03125 C 17.742188 -14.582031 17.925781 -12.421875 18.5 -10.546875 C 19.082031 -8.679688 19.921875 -7.171875 21.015625 -6.015625 C 22.097656 -4.859375 23.382812 -4.039062 24.875 -3.5625 C 26.375 -3.09375 27.671875 -3.128906 28.765625 -3.671875 C 27.535156 -2.785156 25.898438 -1.863281 23.859375 -0.90625 C 21.828125 0.0390625 19.414062 0.515625 16.625 0.515625 C 13.425781 0.515625 10.535156 -0.332031 7.953125 -2.03125 C 5.367188 -3.738281 3.703125 -6.019531 2.953125 -8.875 C 2.140625 -11.800781 2.429688 -14.640625 3.828125 -17.390625 C 5.222656 -20.140625 7.347656 -22.398438 10.203125 -24.171875 C 11.691406 -25.054688 13.507812 -25.921875 15.65625 -26.765625 C 17.800781 -27.617188 20.078125 -28.453125 22.484375 -29.265625 C 24.898438 -30.085938 27.296875 -30.90625 29.671875 -31.71875 C 32.054688 -32.539062 34.21875 -33.425781 36.15625 -34.375 C 38.09375 -35.320312 39.691406 -36.335938 40.953125 -37.421875 C 42.210938 -38.515625 42.875 -39.742188 42.9375 -41.109375 C 43.007812 -41.921875 42.859375 -42.785156 42.484375 -43.703125 C 42.109375 -44.617188 41.582031 -45.453125 40.90625 -46.203125 C 42.738281 -44.429688 43.859375 -42.394531 44.265625 -40.09375 C 44.335938 -39.8125 44.375 -39.535156 44.375 -39.265625 C 44.375 -38.992188 44.375 -38.722656 44.375 -38.453125 Z M 44.375 -7.65625 "/></g></g></g><g fill="#272727" fill-opacity="1"><g transform="translate(233.716117, 217.668804)"><g><path d="M 1.734375 -6.234375 L 2.859375 -6.234375 L 3.890625 -1.453125 L 3.921875 -1.453125 L 6.59375 -6.234375 L 7.71875 -6.234375 L 6.65625 0 L 5.90625 0 L 6.765625 -5.046875 L 6.734375 -5.046875 L 3.9375 0 L 3.390625 0 L 2.328125 -5.046875 L 2.28125 -5.046875 L 1.421875 0 L 0.671875 0 Z M 1.734375 -6.234375 "/></g></g></g><g fill="#272727" fill-opacity="1"><g transform="translate(242.938129, 217.668804)"><g><path d="M 4.609375 -1.8125 L 2.078125 -1.8125 L 1.109375 0 L 0.328125 0 L 3.71875 -6.234375 L 4.453125 -6.234375 L 5.75 0 L 4.96875 0 Z M 4.5 -2.4375 L 3.953125 -5.25 L 3.90625 -5.25 L 2.40625 -2.4375 Z M 4.5 -2.4375 "/></g></g></g><g fill="#272727" fill-opacity="1"><g transform="translate(250.887224, 217.668804)"><g><path d="M 0.578125 -0.71875 L 4.875 -5.5 L 4.875 -5.515625 L 1.40625 -5.515625 L 1.515625 -6.234375 L 5.9375 -6.234375 L 5.8125 -5.515625 L 1.515625 -0.734375 L 1.515625 -0.71875 L 4.984375 -0.71875 L 4.875 0 L 0.46875 0 Z M 0.578125 -0.71875 "/></g></g></g><g fill="#272727" fill-opacity="1"><g transform="translate(258.231009, 217.668804)"><g><path d="M 2.390625 -5.546875 L 2.046875 -3.484375 L 4.734375 -3.484375 L 4.625 -2.875 L 1.9375 -2.875 L 1.5625 -0.6875 L 4.625 -0.6875 L 4.5 0 L 0.671875 0 L 1.734375 -6.234375 L 5.5625 -6.234375 L 5.453125 -5.546875 Z M 2.390625 -5.546875 "/></g></g></g><g fill="#272727" fill-opacity="1"><g transform="translate(265.192025, 217.668804)"><g><path d="M 5.71875 -4.6875 C 5.71875 -4.351562 5.640625 -4.035156 5.484375 -3.734375 C 5.335938 -3.429688 5.117188 -3.171875 4.828125 -2.953125 C 4.535156 -2.742188 4.1875 -2.601562 3.78125 -2.53125 L 5 0 L 4.15625 0 L 2.96875 -2.484375 L 1.859375 -2.484375 L 1.4375 0 L 0.671875 0 L 1.734375 -6.234375 L 3.84375 -6.234375 C 4.488281 -6.234375 4.960938 -6.085938 5.265625 -5.796875 C 5.566406 -5.503906 5.71875 -5.132812 5.71875 -4.6875 Z M 3.21875 -3.140625 C 3.757812 -3.140625 4.179688 -3.269531 4.484375 -3.53125 C 4.796875 -3.800781 4.953125 -4.160156 4.953125 -4.609375 C 4.953125 -4.953125 4.828125 -5.191406 4.578125 -5.328125 C 4.328125 -5.472656 4.015625 -5.546875 3.640625 -5.546875 L 2.375 -5.546875 L 1.96875 -3.140625 Z M 3.21875 -3.140625 "/></g></g></g><g fill="#272727" fill-opacity="1"><g transform="translate(272.4735, 217.668804)"><g><path d="M 1.203125 0.0625 C 1.078125 0.0625 0.972656 0.0195312 0.890625 -0.0625 C 0.816406 -0.144531 0.78125 -0.25 0.78125 -0.375 C 0.78125 -0.53125 0.835938 -0.664062 0.953125 -0.78125 C 1.078125 -0.90625 1.21875 -0.96875 1.375 -0.96875 C 1.507812 -0.96875 1.617188 -0.925781 1.703125 -0.84375 C 1.785156 -0.769531 1.828125 -0.671875 1.828125 -0.546875 C 1.828125 -0.390625 1.757812 -0.25 1.625 -0.125 C 1.5 0 1.359375 0.0625 1.203125 0.0625 Z M 1.203125 0.0625 "/></g></g></g><g fill="#272727" fill-opacity="1"><g transform="translate(276.799645, 217.668804)"><g><path d="M 1.734375 -6.234375 L 4.015625 -6.234375 C 4.734375 -6.234375 5.296875 -6.023438 5.703125 -5.609375 C 6.117188 -5.191406 6.328125 -4.613281 6.328125 -3.875 C 6.328125 -3.144531 6.175781 -2.484375 5.875 -1.890625 C 5.582031 -1.304688 5.175781 -0.84375 4.65625 -0.5 C 4.144531 -0.164062 3.570312 0 2.9375 0 L 0.671875 0 Z M 2.953125 -0.71875 C 3.429688 -0.71875 3.863281 -0.84375 4.25 -1.09375 C 4.644531 -1.351562 4.953125 -1.710938 5.171875 -2.171875 C 5.398438 -2.640625 5.515625 -3.171875 5.515625 -3.765625 C 5.515625 -4.347656 5.359375 -4.789062 5.046875 -5.09375 C 4.734375 -5.394531 4.3125 -5.546875 3.78125 -5.546875 L 2.359375 -5.546875 L 1.53125 -0.71875 Z M 2.953125 -0.71875 "/></g></g></g><g fill="#272727" fill-opacity="1"><g transform="translate(284.81105, 217.668804)"><g><path d="M 2.390625 -5.546875 L 2.046875 -3.484375 L 4.734375 -3.484375 L 4.625 -2.875 L 1.9375 -2.875 L 1.5625 -0.6875 L 4.625 -0.6875 L 4.5 0 L 0.671875 0 L 1.734375 -6.234375 L 5.5625 -6.234375 L 5.453125 -5.546875 Z M 2.390625 -5.546875 "/></g></g></g><g fill="#272727" fill-opacity="1"><g transform="translate(291.772065, 217.668804)"><g><path d="M 1.1875 -6.234375 L 1.96875 -6.234375 L 2.921875 -0.78125 L 2.96875 -0.78125 L 5.796875 -6.234375 L 6.578125 -6.234375 L 3.359375 0 L 2.28125 0 Z M 1.1875 -6.234375 "/></g></g></g></svg>